<svg xmlns="http://www.w3.org/2000/svg" width="14" height="16" viewBox="0 0 14 16">
  <path id="Icon_awesome-discord" data-name="Icon awesome-discord" d="M9.288,7.6a.819.819,0,1,1-.816-.888A.852.852,0,0,1,9.288,7.6ZM5.552,6.712a.891.891,0,0,0,0,1.776A.852.852,0,0,0,6.368,7.6.847.847,0,0,0,5.552,6.712ZM14,1.648V16c-2.015-1.781-1.371-1.191-3.712-3.368l.424,1.48H1.64A1.644,1.644,0,0,1,0,12.464V1.648A1.644,1.644,0,0,1,1.64,0H12.36A1.644,1.644,0,0,1,14,1.648ZM11.72,9.232a10.713,10.713,0,0,0-1.152-4.664,3.956,3.956,0,0,0-2.248-.84l-.112.128A5.324,5.324,0,0,1,10.2,4.872,6.8,6.8,0,0,0,4.224,4.64c-.3.136-.472.232-.472.232a5.4,5.4,0,0,1,2.1-1.048l-.08-.1a3.956,3.956,0,0,0-2.248.84A10.713,10.713,0,0,0,2.376,9.232a2.9,2.9,0,0,0,2.44,1.216s.3-.36.536-.664a2.488,2.488,0,0,1-1.4-.944c.118.082.312.189.328.2a5.832,5.832,0,0,0,4.992.28,4.578,4.578,0,0,0,.92-.472A2.524,2.524,0,0,1,8.744,9.8c.24.3.528.648.528.648A2.924,2.924,0,0,0,11.72,9.232Z" fill="#fff" opacity="0.9"/>
</svg>
