<svg xmlns="http://www.w3.org/2000/svg" width="31.069" height="34.062" viewBox="0 0 31.069 34.062">
  <g id="Icon_feather-box" data-name="Icon feather-box" transform="translate(1.632 1.548)">
    <path id="Path_289" data-name="Path 289" d="M32.3,24.625V12.268A3.089,3.089,0,0,0,30.759,9.6L19.947,3.417a3.089,3.089,0,0,0-3.089,0L6.045,9.6A3.089,3.089,0,0,0,4.5,12.268V24.625A3.089,3.089,0,0,0,6.045,27.3l10.813,6.179a3.089,3.089,0,0,0,3.089,0L30.759,27.3A3.089,3.089,0,0,0,32.3,24.625Z" transform="translate(-4.5 -3.003)" fill="none" stroke="#ff15ea" stroke-linecap="round" stroke-linejoin="round" stroke-width="3"/>
    <path id="Path_290" data-name="Path 290" d="M4.9,10.44l13.485,7.8,13.485-7.8" transform="translate(-4.488 -2.782)" fill="none" stroke="#ff15ea" stroke-linecap="round" stroke-linejoin="round" stroke-width="3"/>
    <path id="Path_291" data-name="Path 291" d="M18,33.57V18" transform="translate(-4.098 -2.557)" fill="none" stroke="#ff15ea" stroke-linecap="round" stroke-linejoin="round" stroke-width="3"/>
  </g>
</svg>
