<svg xmlns="http://www.w3.org/2000/svg" width="34.885" height="29.52" viewBox="0 0 34.885 29.52">
  <g id="Icon_feather-users" data-name="Icon feather-users" transform="translate(0.5 -2.249)">
    <path id="Path_292" data-name="Path 292" d="M23.961,30.923V28.115A5.615,5.615,0,0,0,18.346,22.5H7.115A5.615,5.615,0,0,0,1.5,28.115v2.808" transform="translate(0 -1.154)" fill="none" stroke="#ff15ea" stroke-linecap="round" stroke-linejoin="round" stroke-width="4"/>
    <path id="Path_293" data-name="Path 293" d="M18.731,10.115A5.615,5.615,0,1,1,13.115,4.5a5.615,5.615,0,0,1,5.615,5.615Z" transform="translate(-0.385)" fill="none" stroke="#ff15ea" stroke-linecap="round" stroke-linejoin="round" stroke-width="4"/>
    <path id="Path_294" data-name="Path 294" d="M34.212,30.936V28.128A5.615,5.615,0,0,0,30,22.7" transform="translate(-1.827 -1.166)" fill="none" stroke="#ff15ea" stroke-linecap="round" stroke-linejoin="round" stroke-width="4"/>
    <path id="Path_295" data-name="Path 295" d="M24,4.695a5.615,5.615,0,0,1,0,10.88" transform="translate(-1.442 -0.012)" fill="none" stroke="#ff15ea" stroke-linecap="round" stroke-linejoin="round" stroke-width="4"/>
  </g>
</svg>
