<svg xmlns="http://www.w3.org/2000/svg" width="28" height="28" viewBox="0 0 28 28">
  <path id="Icon_awesome-python" data-name="Icon awesome-python" d="M27.487,12.781c-.481-1.931-1.394-3.387-3.337-3.387H21.643v2.962a4.287,4.287,0,0,1-4.175,4.237H10.793a3.406,3.406,0,0,0-3.337,3.394v6.362c0,1.812,1.575,2.875,3.337,3.394a11.231,11.231,0,0,0,6.675,0c1.681-.487,3.337-1.469,3.337-3.394V23.806H14.137v-.85H24.149c1.944,0,2.662-1.356,3.337-3.387a11.431,11.431,0,0,0,0-6.787ZM17.887,25.5a1.272,1.272,0,1,1-1.256,1.269A1.263,1.263,0,0,1,17.887,25.5Zm-7.4-9.743h6.675A3.365,3.365,0,0,0,20.5,12.362V5.994a3.731,3.731,0,0,0-3.337-3.475,20.6,20.6,0,0,0-6.675.006C7.662,3.025,7.15,4.069,7.15,6V8.544h6.681v.85H4.644A4.172,4.172,0,0,0,.469,12.781a12.517,12.517,0,0,0,0,6.787c.475,1.975,1.606,3.387,3.55,3.387H6.312v-3.05A4.244,4.244,0,0,1,10.487,15.756Zm-.419-8.912a1.272,1.272,0,1,1,1.256-1.269,1.263,1.263,0,0,1-1.256,1.269Z" transform="translate(0 -2.25)" fill="#fff" opacity="0.8"/>
</svg>
